HIERARCHY
ROOT Hips
{
	OFFSET -0.001795 -0.223333 0.028219
	CHANNELS 6 Xposition Yposition Zposition Zrotation Yrotation Xrotation 
	JOINT LeftUpLeg
	{
		OFFSET 0.069520 -0.091406 -0.006815
		CHANNELS 3 Zrotation Yrotation Xrotation
		JOINT LeftLeg
		{
			OFFSET 0.034277 -0.375199 -0.004496
			CHANNELS 3 Zrotation Yrotation Xrotation
			JOINT LeftFoot
			{
				OFFSET -0.013596 -0.397961 -0.043693
				CHANNELS 3 Zrotation Yrotation Xrotation
				JOINT LeftToe
				{
					OFFSET 0.026358 -0.055791 0.119288
					CHANNELS 3 Zrotation Yrotation Xrotation
					End Site
					{
						OFFSET 0.000000 0.000000 0.000000
					}
				}
			}
		}
	}
	JOINT RightUpLeg
	{
		OFFSET -0.067670 -0.090522 -0.004320
		CHANNELS 3 Zrotation Yrotation Xrotation
		JOINT RightLeg
		{
			OFFSET -0.038290 -0.382569 -0.008850
			CHANNELS 3 Zrotation Yrotation Xrotation
			JOINT RightFoot
			{
				OFFSET 0.015774 -0.398415 -0.042312
				CHANNELS 3 Zrotation Yrotation Xrotation
				JOINT RightToe
				{
					OFFSET -0.025372 -0.048144 0.123348
					CHANNELS 3 Zrotation Yrotation Xrotation
					End Site
					{
						OFFSET 0.000000 0.000000 0.000000
					}
				}
			}
		}
	}
	JOINT Spine
	{
		OFFSET -0.002533 0.108963 -0.026696
		CHANNELS 3 Zrotation Yrotation Xrotation
		JOINT Spine1
		{
			OFFSET 0.005487 0.135180 0.001092
			CHANNELS 3 Zrotation Yrotation Xrotation
			JOINT Spine2
			{
				OFFSET 0.001457 0.052922 0.025425
				CHANNELS 3 Zrotation Yrotation Xrotation
				JOINT Neck
				{
					OFFSET -0.002778 0.213870 -0.042857
					CHANNELS 3 Zrotation Yrotation Xrotation
					JOINT Head
					{
						OFFSET 0.005152 0.064970 0.051349
						CHANNELS 3 Zrotation Yrotation Xrotation
						End Site
						{
							OFFSET 0.000000 0.000000 0.000000
						}
					}
				}
				JOINT LeftShoulder
				{
					OFFSET 0.078845 0.121749 -0.034090
					CHANNELS 3 Zrotation Yrotation Xrotation
					JOINT LeftArm
					{
						OFFSET 0.090977 0.030469 -0.008868
						CHANNELS 3 Zrotation Yrotation Xrotation
						JOINT LeftForeArm
						{
							OFFSET 0.259612 -0.012772 -0.027456
							CHANNELS 3 Zrotation Yrotation Xrotation
							JOINT LeftHand
							{
								OFFSET 0.249234 0.008986 -0.001171
								CHANNELS 3 Zrotation Yrotation Xrotation
								End Site
								{
									OFFSET 0.000000 0.000000 0.000000
								}
							}
						}
					}
				}
				JOINT RightShoulder
				{
					OFFSET -0.081759 0.118833 -0.038615
					CHANNELS 3 Zrotation Yrotation Xrotation
					JOINT RightArm
					{
						OFFSET -0.096012 0.032551 -0.009143
						CHANNELS 3 Zrotation Yrotation Xrotation
						JOINT RightForeArm
						{
							OFFSET -0.253742 -0.013329 -0.021401
							CHANNELS 3 Zrotation Yrotation Xrotation
							JOINT RightHand
							{
								OFFSET -0.255298 0.007772 -0.005559
								CHANNELS 3 Zrotation Yrotation Xrotation
								End Site
								{
									OFFSET 0.000000 0.000000 0.000000
								}
							}
						}
					}
				}
			}
		}
	}
}
MOTION
Frames: 15
Frame Time: 0.050000
0.000000 0.947522 0.000000 -1.789793 3.362110 2.564529 2.834264 -0.154820 -1.316738 0.207952 -0.251858 5.846903 1.656446 9.668958 19.730730 0.000000 0.000000 0.000000 -0.294000 0.494775 -4.944990 -0.074614 0.137823 3.433164 4.544452 5.947879 9.063360 0.000000 0.000000 0.000000 5.735562 0.279516 -4.360638 -1.348514 0.610038 1.082464 -3.829322 3.073331 2.244400 12.898916 -8.170406 -8.053801 0.000000 0.000000 0.000000 -15.547139 -7.233327 0.810619 -50.098753 -7.141273 -2.585725 -123.801761 -66.054909 102.781383 0.000000 0.000000 0.000000 14.330587 -0.117853 -0.388917 56.085735 8.467706 -1.231526 108.745508 60.296588 84.548468 0.000000 0.000000 0.000000 
-0.001560 0.947060 0.001736 -2.452046 2.258016 3.463532 3.766538 -0.192802 -1.727217 -0.268993 -0.151459 5.292777 2.311516 10.397788 19.742006 0.000000 0.000000 0.000000 0.346463 0.554817 -5.420581 0.114559 0.078059 2.438656 5.128262 6.816793 9.475814 0.000000 0.000000 0.000000 6.804489 0.342671 -4.954568 -1.772511 0.799880 2.132866 -3.839199 2.500156 0.955122 14.962352 -9.382467 -8.887562 0.000000 0.000000 0.000000 -16.629735 -6.826020 0.722241 -48.812515 -6.503836 -2.647890 -131.226157 -63.940029 110.385949 0.000000 0.000000 0.000000 13.831874 -1.329737 -1.208436 56.503741 6.633816 -1.940027 114.257305 54.013106 82.090257 0.000000 0.000000 0.000000 
-0.003365 0.946860 0.002790 -2.130162 1.325199 3.547199 3.630749 -0.152530 -1.155936 -0.690813 -0.058453 4.512487 2.696836 10.849597 20.089483 0.000000 0.000000 0.000000 0.637089 0.601373 -5.830231 -0.924904 0.240462 3.006459 5.381532 7.487910 9.048557 0.000000 0.000000 0.000000 6.711912 0.327047 -4.746440 -0.591773 0.263794 0.582100 -5.385593 1.893429 2.321435 14.147711 -9.108230 -8.217302 0.000000 0.000000 0.000000 -16.233844 -6.006167 0.571924 -48.624999 -7.407337 -2.461944 -134.502844 -63.074945 114.489207 0.000000 0.000000 0.000000 14.801934 -0.653562 -1.033140 55.228837 4.251740 -3.175751 117.170762 49.898152 79.687532 0.000000 0.000000 0.000000 
-0.005370 0.946542 0.003401 -2.354524 0.247770 3.802033 3.839375 -0.165914 -1.431173 -0.715019 -0.059180 4.875414 3.310375 11.566631 20.327659 0.000000 0.000000 0.000000 1.087196 0.636508 -6.093064 -1.188493 0.268119 2.857901 5.856610 8.335507 9.101762 0.000000 0.000000 0.000000 7.120828 0.347565 -4.831511 -0.633277 0.277452 1.046208 -4.885029 0.379373 1.847696 14.350755 -9.297852 -8.191024 0.000000 0.000000 0.000000 -16.594779 -5.225115 0.620150 -49.042120 -7.011042 -2.683670 -138.166673 -61.886903 119.655764 0.000000 0.000000 0.000000 13.453773 -1.310887 -1.650709 56.258228 3.646515 -3.430296 118.986771 45.557298 74.124204 0.000000 0.000000 0.000000 
-0.007596 0.946314 0.003476 -2.324697 -1.076155 3.798791 3.580949 -0.147678 -1.313436 -0.464285 -0.094763 5.057501 4.016474 12.393343 20.738247 0.000000 0.000000 0.000000 1.181292 0.635401 -6.101128 -1.313148 0.274096 2.674184 6.447642 9.401476 9.154604 0.000000 0.000000 0.000000 7.056292 0.295997 -4.236623 -0.332911 0.134922 1.234860 -5.073937 -0.165539 1.790160 14.742041 -9.699711 -7.852292 0.000000 0.000000 0.000000 -16.209167 -6.246980 1.423246 -48.820008 -7.987979 -2.332738 -140.357887 -62.562465 124.177564 0.000000 0.000000 0.000000 12.649237 -0.947021 -1.588295 56.260127 2.541117 -3.957574 121.687878 42.155886 71.351028 0.000000 0.000000 0.000000 
-0.009838 0.946262 0.003289 -2.728741 -3.104786 3.592264 3.719609 -0.117396 -1.059333 -0.298955 -0.123381 5.609058 5.118302 13.662164 21.363081 0.000000 0.000000 0.000000 1.994722 0.642221 -6.083265 -1.936364 0.354001 2.746674 7.403059 10.997460 9.436359 0.000000 0.000000 0.000000 7.517986 0.250905 -3.544629 -0.337598 0.149786 1.193803 -4.731247 -0.782040 1.999446 14.415750 -9.434114 -8.252338 0.000000 0.000000 0.000000 -16.370845 -6.132534 1.758595 -49.228901 -8.765948 -2.138398 -141.476617 -63.179729 127.540413 0.000000 0.000000 0.000000 12.209570 -0.293742 -1.501970 55.682128 1.877997 -4.273562 124.242164 40.632492 70.608197 0.000000 0.000000 0.000000 
-0.011789 0.946035 0.002890 -2.807426 -4.562720 3.505823 3.725501 -0.090231 -0.799423 -0.387960 -0.100900 5.718662 5.881672 14.518686 21.840558 0.000000 0.000000 0.000000 2.073082 0.662222 -6.287036 -1.848237 0.358620 3.046237 8.065304 12.148114 9.561613 0.000000 0.000000 0.000000 7.733418 0.226745 -3.173655 -0.483872 0.229386 1.303040 -4.682736 -1.459540 2.273761 14.925852 -9.716889 -8.788777 0.000000 0.000000 0.000000 -16.021247 -6.526124 2.296935 -49.070302 -9.684993 -1.847628 -142.278839 -64.979740 131.246091 0.000000 0.000000 0.000000 11.816766 -0.185956 -1.616880 55.259670 1.866608 -4.294359 124.277792 39.717874 68.029460 0.000000 0.000000 0.000000 
-0.013209 0.945930 0.002306 -3.064561 -6.117485 3.385210 3.884714 -0.070782 -0.702297 -0.505119 -0.078568 6.223980 6.716573 15.450003 22.409150 0.000000 0.000000 0.000000 2.519345 0.681330 -6.426568 -2.130849 0.407973 3.306656 8.806853 13.350728 9.821257 0.000000 0.000000 0.000000 8.033034 0.187753 -2.666374 -0.573141 0.282059 1.229089 -4.512952 -1.513575 2.510774 14.680673 -9.689430 -8.410192 0.000000 0.000000 0.000000 -16.092224 -6.877667 2.690807 -48.905780 -9.922144 -1.819502 -142.720730 -66.327383 133.601610 0.000000 0.000000 0.000000 11.607429 0.135310 -1.573569 54.365746 1.849298 -4.258605 125.124287 39.557560 68.026518 0.000000 0.000000 0.000000 
-0.014001 0.945557 0.001570 -3.153373 -7.114017 3.264504 3.866282 -0.070361 -0.851703 -0.534050 -0.076027 6.959013 7.283861 16.075581 22.751971 0.000000 0.000000 0.000000 2.683749 0.693428 -6.530738 -2.247282 0.436607 3.545340 9.244716 14.137818 9.869896 0.000000 0.000000 0.000000 8.189122 0.154308 -2.270996 -0.666262 0.332332 1.061434 -4.461575 -1.777943 3.002916 14.774391 -9.869601 -8.184916 0.000000 0.000000 0.000000 -16.037541 -7.019732 2.961646 -49.084677 -10.523394 -1.657068 -141.040846 -67.758594 133.040023 0.000000 0.000000 0.000000 11.633682 0.547268 -1.507947 53.739393 2.448810 -3.982094 123.876134 40.973679 68.185830 0.000000 0.000000 0.000000 
-0.014357 0.945438 0.000844 -3.174859 -8.234049 3.293956 3.872591 -0.077002 -1.117517 -0.823841 -0.015550 7.608141 7.876421 16.711337 23.282269 0.000000 0.000000 0.000000 2.744124 0.729470 -6.845043 -2.371966 0.469768 3.827497 9.762488 14.985220 10.039116 0.000000 0.000000 0.000000 8.320885 0.142125 -2.085596 -0.738922 0.373737 1.052469 -4.350247 -1.694704 3.227085 14.659698 -9.880348 -7.942974 0.000000 0.000000 0.000000 -16.313392 -7.044764 3.113846 -49.140006 -10.430945 -1.747215 -139.054694 -68.462483 131.301494 0.000000 0.000000 0.000000 11.918372 0.912506 -1.468453 52.937235 2.984526 -3.685299 123.310384 42.653877 69.710509 0.000000 0.000000 0.000000 
-0.014481 0.944936 0.000413 -3.151700 -8.920547 3.424879 3.683369 -0.096423 -1.467922 -0.757944 -0.022789 8.116096 8.305487 17.175584 23.515865 0.000000 0.000000 0.000000 2.797625 0.770273 -7.181987 -2.560162 0.507042 4.032907 10.016907 15.527226 9.973624 0.000000 0.000000 0.000000 8.279108 0.135265 -2.020149 -0.629068 0.323155 1.004907 -4.250361 -1.547496 3.328593 14.994146 -10.150997 -7.835668 0.000000 0.000000 0.000000 -16.660867 -6.971904 3.155365 -49.211474 -9.931896 -1.986592 -135.057910 -68.163398 125.951526 0.000000 0.000000 0.000000 12.051823 1.056785 -1.465452 52.690932 4.039623 -3.209189 122.387804 44.597844 71.357377 0.000000 0.000000 0.000000 
-0.014569 0.944726 0.000283 -3.101303 -9.470433 3.562937 3.544629 -0.109443 -1.688936 -0.790181 -0.009226 8.358878 8.621785 17.507652 23.766254 0.000000 0.000000 0.000000 2.975544 0.796333 -7.376792 -3.020350 0.563014 4.011078 10.235011 15.958970 9.959359 0.000000 0.000000 0.000000 8.257897 0.148533 -2.125963 -0.763551 0.399439 1.412116 -4.095085 -1.404645 3.012567 15.169070 -10.429185 -7.061742 0.000000 0.000000 0.000000 -17.026152 -6.850853 3.131668 -48.864376 -9.401003 -2.186419 -133.135627 -66.907296 122.329276 0.000000 0.000000 0.000000 12.425962 1.205767 -1.488815 52.375125 4.637624 -2.879899 122.068514 46.059458 72.974601 0.000000 0.000000 0.000000 
-0.014587 0.944582 0.000502 -3.189148 -9.837797 3.771584 3.586998 -0.116972 -1.841470 -0.829267 0.004615 8.382588 8.847510 17.744928 23.882608 0.000000 0.000000 0.000000 3.099483 0.839735 -7.699294 -3.112827 0.587283 4.183685 10.391140 16.226982 10.002787 0.000000 0.000000 0.000000 8.151510 0.160309 -2.254224 -0.588210 0.312714 1.195386 -3.971072 -0.972494 3.107546 15.273041 -10.668547 -6.387305 0.000000 0.000000 0.000000 -17.118691 -6.532128 2.926898 -48.683329 -8.774342 -2.436897 -131.536294 -65.013547 118.326434 0.000000 0.000000 0.000000 12.834119 0.901889 -1.658875 52.329446 5.769377 -2.393065 121.557805 47.629163 74.821957 0.000000 0.000000 0.000000 
-0.014606 0.944208 0.000879 -3.265889 -9.991608 3.854705 3.574612 -0.120906 -1.911470 -0.727239 -0.013947 8.469553 8.981976 17.895935 23.832839 0.000000 0.000000 0.000000 3.223388 0.860671 -7.837746 -3.206329 0.609930 4.322292 10.413184 16.366074 9.894110 0.000000 0.000000 0.000000 8.151581 0.184026 -2.453400 -0.604678 0.330910 1.643690 -3.887676 -0.773913 2.586082 15.376511 -10.950652 -5.330989 0.000000 0.000000 0.000000 -16.829752 -6.376401 2.779213 -48.144240 -7.984779 -2.667464 -131.746248 -63.404031 116.823495 0.000000 0.000000 0.000000 12.766675 0.616581 -1.762905 52.827718 6.334572 -2.133986 121.050641 48.981746 76.181780 0.000000 0.000000 0.000000 
-0.014556 0.943887 0.001273 -3.257541 -10.128394 3.894612 3.634687 -0.118308 -1.901972 -0.905270 0.024848 8.460569 9.063821 17.984612 23.795156 0.000000 0.000000 0.000000 3.230748 0.885062 -8.019551 -3.260729 0.639174 4.598386 10.406958 16.489506 9.742835 0.000000 0.000000 0.000000 7.990872 0.206258 -2.658796 -0.394839 0.227066 1.538771 -3.932672 -0.722404 2.687652 15.395682 -11.105605 -4.790444 0.000000 0.000000 0.000000 -16.669181 -6.263394 2.723827 -47.827537 -7.214312 -2.960791 -131.670402 -62.397471 115.720724 0.000000 0.000000 0.000000 13.152363 0.440374 -1.907306 53.041986 6.971652 -1.870115 120.364681 50.615960 77.673177 0.000000 0.000000 0.000000 
